HIERARCHY
ROOT Hips
{
  OFFSET 5.80788e-005 67.184 3.4734
  CHANNELS 6 Xposition Yposition Zposition Zrotation Xrotation Yrotation
  JOINT Chest
  {
    OFFSET 0 8.7983 -4.7612
    CHANNELS 3 Zrotation Xrotation Yrotation
    JOINT Chest2
    {
      OFFSET 0 8.0291 0.4195
      CHANNELS 3 Zrotation Xrotation Yrotation
      JOINT Chest3
      {
        OFFSET 0 9.9351 -2.2114
        CHANNELS 3 Zrotation Xrotation Yrotation
        JOINT Neck
        {
          OFFSET 0 22.3885 -0.4656
          CHANNELS 3 Zrotation Xrotation Yrotation
          JOINT Head
          {
            OFFSET -0.0001 12.643 3.4389
            CHANNELS 3 Zrotation Xrotation Yrotation
            End Site
            {
              OFFSET 0.0001 17.6655 0.5274
            }
          }
        }
        JOINT LeftCollar
        {
          OFFSET 2.2603 21.606 7.4023
          CHANNELS 3 Zrotation Xrotation Yrotation
          JOINT LeftShoulder
          {
            OFFSET 13.5163 -1.1332 -5.0146
            CHANNELS 3 Zrotation Xrotation Yrotation
            JOINT LeftElbow
            {
              OFFSET -0.0995 -28.05 -0.2431
              CHANNELS 3 Zrotation Xrotation Yrotation
              JOINT LeftWrist
              {
                OFFSET 0.0679 -23.3996 -0.1402
                CHANNELS 3 Zrotation Xrotation Yrotation
                JOINT LeftFinger1
                {
                  OFFSET 0.7932 -9.069 2.5189
                  CHANNELS 3 Zrotation Xrotation Yrotation
                  JOINT LeftFinger11
                  {
                    OFFSET -0.8272 -3.3923 0.5977
                    CHANNELS 3 Zrotation Xrotation Yrotation
                    JOINT LeftFinger12
                    {
                      OFFSET -0.5649 -2.3158 0.4082
                      CHANNELS 3 Zrotation Xrotation Yrotation
                      End Site
                      {
                        OFFSET -0.4919 -1.6479 0.2673
                      }
                    }
                  }
                }
                JOINT LeftFinger2
                {
                  OFFSET 0.9159 -9.2044 0.2193
                  CHANNELS 3 Zrotation Xrotation Yrotation
                  JOINT LeftFinger21
                  {
                    OFFSET 0.0117 -4.1944 -0.0248
                    CHANNELS 3 Zrotation Xrotation Yrotation
                    JOINT LeftFinger22
                    {
                      OFFSET 0.0071 -2.3249 -0.0142
                      CHANNELS 3 Zrotation Xrotation Yrotation
                      End Site
                      {
                        OFFSET -0.1475 -2.0882 0.0028
                      }
                    }
                  }
                }
                JOINT LeftFinger3
                {
                  OFFSET 0.6113 -8.7231 -2.0637
                  CHANNELS 3 Zrotation Xrotation Yrotation
                  JOINT LeftFinger31
                  {
                    OFFSET -0.1927 -3.8059 -0.2383
                    CHANNELS 3 Zrotation Xrotation Yrotation
                    JOINT LeftFinger32
                    {
                      OFFSET -0.1091 -2.1688 -0.1362
                      CHANNELS 3 Zrotation Xrotation Yrotation
                      End Site
                      {
                        OFFSET -0.2358 -1.9176 -0.0906
                      }
                    }
                  }
                }
                JOINT LeftFinger4
                {
                  OFFSET -0.6151 -8.0947 -3.5641
                  CHANNELS 3 Zrotation Xrotation Yrotation
                  JOINT LeftFinger41
                  {
                    OFFSET -0.4882 -2.341 -0.6462
                    CHANNELS 3 Zrotation Xrotation Yrotation
                    JOINT LeftFinger42
                    {
                      OFFSET -0.3575 -1.7167 -0.4742
                      CHANNELS 3 Zrotation Xrotation Yrotation
                      End Site
                      {
                        OFFSET -0.4187 -1.5237 -0.3496
                      }
                    }
                  }
                }
                JOINT LeftFinger0
                {
                  OFFSET -1.42 -1.8761 1.4223
                  CHANNELS 3 Zrotation Xrotation Yrotation
                  JOINT LeftFinger01
                  {
                    OFFSET -1.1471 -3.4929 2.6334
                    CHANNELS 3 Zrotation Xrotation Yrotation
                    JOINT LeftFinger02
                    {
                      OFFSET -0.823 -2.3 1.6571
                      CHANNELS 3 Zrotation Xrotation Yrotation
                      End Site
                      {
                        OFFSET -0.5822 -1.6914 1.1582
                      }
                    }
                  }
                }
              }
            }
          }
        }
        JOINT RightCollar
        {
          OFFSET -2.2603 21.606 7.4023
          CHANNELS 3 Zrotation Xrotation Yrotation
          JOINT RightShoulder
          {
            OFFSET -13.5187 -1.1334 -5.0155
            CHANNELS 3 Zrotation Xrotation Yrotation
            JOINT RightElbow
            {
              OFFSET 0.0994 -28.0499 -0.2431
              CHANNELS 3 Zrotation Xrotation Yrotation
              JOINT RightWrist
              {
                OFFSET -0.0679 -23.3996 -0.1402
                CHANNELS 3 Zrotation Xrotation Yrotation
                JOINT RightFinger1
                {
                  OFFSET -0.7932 -9.0691 2.5189
                  CHANNELS 3 Zrotation Xrotation Yrotation
                  JOINT RightFinger11
                  {
                    OFFSET 0.8272 -3.3923 0.5977
                    CHANNELS 3 Zrotation Xrotation Yrotation
                    JOINT RightFinger12
                    {
                      OFFSET 0.565 -2.3158 0.4082
                      CHANNELS 3 Zrotation Xrotation Yrotation
                      End Site
                      {
                        OFFSET 0.4919 -1.6479 0.2673
                      }
                    }
                  }
                }
                JOINT RightFinger2
                {
                  OFFSET -0.916 -9.2044 0.2193
                  CHANNELS 3 Zrotation Xrotation Yrotation
                  JOINT RightFinger21
                  {
                    OFFSET -0.0117 -4.1944 -0.0248
                    CHANNELS 3 Zrotation Xrotation Yrotation
                    JOINT RightFinger22
                    {
                      OFFSET -0.0071 -2.3249 -0.0142
                      CHANNELS 3 Zrotation Xrotation Yrotation
                      End Site
                      {
                        OFFSET 0.1475 -2.0882 0.0028
                      }
                    }
                  }
                }
                JOINT RightFinger3
                {
                  OFFSET -0.6113 -8.7231 -2.0637
                  CHANNELS 3 Zrotation Xrotation Yrotation
                  JOINT RightFinger31
                  {
                    OFFSET 0.1927 -3.8059 -0.2383
                    CHANNELS 3 Zrotation Xrotation Yrotation
                    JOINT RightFinger32
                    {
                      OFFSET 0.1091 -2.1688 -0.1362
                      CHANNELS 3 Zrotation Xrotation Yrotation
                      End Site
                      {
                        OFFSET 0.2358 -1.9176 -0.0906
                      }
                    }
                  }
                }
                JOINT RightFinger4
                {
                  OFFSET 0.6151 -8.0947 -3.564
                  CHANNELS 3 Zrotation Xrotation Yrotation
                  JOINT RightFinger41
                  {
                    OFFSET 0.4882 -2.341 -0.6462
                    CHANNELS 3 Zrotation Xrotation Yrotation
                    JOINT RightFinger42
                    {
                      OFFSET 0.3574 -1.7166 -0.4742
                      CHANNELS 3 Zrotation Xrotation Yrotation
                      End Site
                      {
                        OFFSET 0.4187 -1.5237 -0.3496
                      }
                    }
                  }
                }
                JOINT RightFinger0
                {
                  OFFSET 1.4199 -1.8761 1.4221
                  CHANNELS 3 Zrotation Xrotation Yrotation
                  JOINT RightFinger01
                  {
                    OFFSET 1.1472 -3.4929 2.6336
                    CHANNELS 3 Zrotation Xrotation Yrotation
                    JOINT RightFinger02
                    {
                      OFFSET 0.8229 -2.3 1.6571
                      CHANNELS 3 Zrotation Xrotation Yrotation
                      End Site
                      {
                        OFFSET 0.5822 -1.6914 1.1582
                      }
                    }
                  }
                }
              }
            }
          }
        }
      }
    }
  }
  JOINT RightHip
  {
    OFFSET -9.412 3.9771 -0.7758
    CHANNELS 3 Zrotation Xrotation Yrotation
    JOINT RightKnee
    {
      OFFSET -0.7531 -40.938 0
      CHANNELS 3 Zrotation Xrotation Yrotation
      JOINT RightAnkle
      {
        OFFSET 0 -40.1986 0
        CHANNELS 3 Zrotation Xrotation Yrotation
        JOINT RightToe
        {
          OFFSET 0 -4.4182 9.239
          CHANNELS 3 Zrotation Xrotation Yrotation
          End Site
          {
            OFFSET 0 0 6.1981
          }
        }
      }
    }
  }
  JOINT LeftHip
  {
    OFFSET 9.4119 3.9773 -0.7758
    CHANNELS 3 Zrotation Xrotation Yrotation
    JOINT LeftKnee
    {
      OFFSET 0.7532 -40.9383 0
      CHANNELS 3 Zrotation Xrotation Yrotation
      JOINT LeftAnkle
      {
        OFFSET 0 -40.1986 0
        CHANNELS 3 Zrotation Xrotation Yrotation
        JOINT LeftToe
        {
          OFFSET 0 -4.4182 9.239
          CHANNELS 3 Zrotation Xrotation Yrotation
          End Site
          {
            OFFSET 0 0 6.1981
          }
        }
      }
    }
  }
}
MOTION
Frames:	4
Frame Time:	0.0333333
5.80788e-005 67.184 3.4734 0 0 -0 0 0 -0 0 0 -0 0 0 -0 0 0 -0 0 0 -0 0 0 -12.5014 88.1196 14.2451 10.6914 -0.00160068 -0.00239207 0.000740045 -8.4365e-005 7.00714e-005 -9.52055e-007 9.93923e-017 -1.98785e-016 -1.59028e-015 9.93923e-017 -5.96354e-016 -1.59028e-015 -9.93923e-017 -5.96354e-016 -1.59028e-015 9.93923e-017 -1.98785e-016 -1.59028e-015 -0.0128176 0.00232552 8.52707e-005 9.93923e-017 5.96354e-016 -0 9.93923e-017 -1.98785e-016 -1.59028e-015 -0.0160551 0.00299681 0.000857156 -2.48481e-016 0 3.18055e-015 9.93923e-017 -1.98785e-016 -1.59028e-015 -0.0125865 0.0031206 0.00282719 0 1.98785e-016 -0 9.93923e-017 -1.98785e-016 -1.59028e-015 9.93923e-017 -5.96354e-016 -1.59028e-015 -9.93923e-017 -5.96354e-016 -1.59028e-015 -0.865644 0.16582 7.03859 -88.0329 10.2057 -10.5567 0.0015593 -0.00248883 -0.000788628 7.87605e-005 4.10553e-005 1.24965e-005 -3.97569e-016 -7.95139e-016 3.18055e-015 -1.98785e-016 -3.97569e-016 3.18055e-015 -1.98785e-016 0 3.18055e-015 -3.97569e-016 -7.95139e-016 3.18055e-015 0.0129473 0.00231697 -8.70038e-005 9.93923e-017 -7.95139e-016 1.59028e-015 -3.97569e-016 -7.95139e-016 3.18055e-015 0.0163314 0.00303369 -0.000872333 3.97569e-016 7.95139e-016 -3.18055e-015 -3.97569e-016 -7.95139e-016 3.18055e-015 0.0145763 0.00367772 -0.00326275 9.93923e-017 -3.97569e-016 -0 -3.97569e-016 -7.95139e-016 3.18055e-015 -1.98785e-016 -3.97569e-016 3.18055e-015 -1.98785e-016 0 3.18055e-015 3.42485 1.36937 -0.0640303 0.000136572 0.69354 0.00145564 -3.42573 -2.06297 -0.0607933 -3.19502e-024 0 -1.48106e-024 -3.42498 1.36123 0.0639712 -6.769e-005 0.712612 -0.0012277 3.42582 -2.07388 0.0612819 2.55305e-023 0 -2.31416e-026 
-2.93562 22.1856 50.5834 -43.5783 -33.0364 119.809 0.0202968 -0.371844 0.031101 0.0407739 -0.743653 0.0623528 0.0407757 -0.743647 0.0623423 2.41504e-005 -11.1754 2.426e-005 -0.0426415 -16.7255 -0.0176073 20.81 11.7 -24.0557 100.136 1.5061 87.5158 -23.1134 -61.3764 7.9207 -9.97665 -18.1342 -10.2498 2.38542e-015 -1.59028e-015 3.18055e-015 1.59028e-015 0 -0 -7.95139e-016 -1.59028e-015 3.18055e-015 2.38542e-015 -1.59028e-015 3.18055e-015 -0.0127992 0.00232583 8.61476e-005 1.76556e-031 1.59028e-015 -6.36111e-015 2.38542e-015 -1.59028e-015 3.18055e-015 -0.0160418 0.00299573 0.000862731 -7.15625e-015 3.18055e-015 9.54166e-015 2.38542e-015 -1.59028e-015 3.18055e-015 -0.0126534 0.00314286 0.00284361 -3.97569e-015 -1.59028e-015 -0 2.38542e-015 -1.59028e-015 3.18055e-015 1.59028e-015 0 -0 -7.95139e-016 -1.59028e-015 3.18055e-015 -21.7263 11.6921 18.7596 -98.1601 -2.75449 -88.5711 22.9176 -61.1531 -8.75549 9.73449 -18.3128 10.0617 -6.62086e-032 -1.59028e-015 -2.38542e-015 -3.18055e-015 1.59028e-015 7.95139e-016 3.18055e-015 4.77083e-015 -1.59028e-015 -6.62086e-032 -1.59028e-015 -2.38542e-015 0.0129883 0.00232867 -8.68749e-005 -1.56096e-006 6.68175e-007 -3.10452e-007 -6.62086e-032 -1.59028e-015 -2.38542e-015 0.01635 0.00304712 -0.000880556 -6.36111e-015 4.77083e-015 7.95139e-016 -6.62086e-032 -1.59028e-015 -2.38542e-015 0.014597 0.00367915 -0.00326775 -2.37963e-006 6.6739e-007 -1.94375e-006 -6.62086e-032 -1.59028e-015 -2.38542e-015 -3.18055e-015 1.59028e-015 7.95139e-016 3.18055e-015 4.77083e-015 -1.59028e-015 -65.2827 -62.0429 -57.7529 173.191 77.3195 -176.675 -6.26948 6.48808 -1.84218 -2.53671e-006 -1.31493e-006 -4.08433e-006 65.5645 -60.7629 58.6489 -173.082 77.3051 176.568 6.25339 6.51169 1.85035 6.36111e-015 0 1.59028e-015 
1.53838 3.9719 75.7872 43.3493 -70.9566 -135.039 0.0412852 -0.61555 0.045926 0.0830677 -1.23111 0.0922997 0.0830659 -1.23112 0.0923026 -7.91887e-006 -15.9193 -3.35558e-006 -0.0649461 -23.384 -0.0256315 31.8927 16.8966 -30.1019 106.479 -3.90331 122.157 -101.197 -76.9453 -57.1567 -14.9625 -26.3374 -15.4823 -1.59028e-015 -6.36111e-015 -3.18055e-015 -4.77083e-015 -3.18055e-015 -7.95139e-015 6.36111e-015 0 4.77083e-015 -1.59028e-015 -6.36111e-015 -3.18055e-015 -0.0128209 0.00233073 8.53374e-005 1.59028e-015 0 1.59028e-015 -1.59028e-015 -6.36111e-015 -3.18055e-015 -0.0160347 0.00299143 0.000861156 1.59028e-015 -9.54166e-015 -4.77083e-015 -1.59028e-015 -6.36111e-015 -3.18055e-015 -0.0125997 0.00312619 0.00282778 7.25524e-006 -3.99012e-006 8.10249e-007 -1.59028e-015 -6.36111e-015 -3.18055e-015 -4.77083e-015 -3.18055e-015 -7.95139e-015 6.36111e-015 0 4.77083e-015 -32.8241 16.7992 24.8792 -104.244 -8.93986 -123.627 100.317 -76.9427 55.7138 14.6105 -26.6088 15.1662 -4.77083e-015 -6.36111e-015 -0 2.38542e-015 2.37711e-006 -6.36111e-015 2.58414e-006 7.37303e-007 -1.03124e-006 -4.77083e-015 -6.36111e-015 -0 0.0129355 0.00231183 -8.17987e-005 7.95138e-016 -1.0266e-006 -9.54166e-015 -4.77083e-015 -6.36111e-015 -0 0.0163341 0.00302883 -0.000863804 -1.59028e-015 2.76199e-006 -0 -4.77083e-015 -6.36111e-015 -0 0.0145843 0.00367867 -0.00325909 -5.25369e-006 -3.86968e-006 1.89046e-006 -4.77083e-015 -6.36111e-015 -0 2.38542e-015 2.37711e-006 -6.36111e-015 2.58414e-006 7.37303e-007 -1.03124e-006 -133.183 -55.5009 -115.241 177.244 33.427 176.279 -6.35188 8.38624 -4.55466 1.48922e-006 -2.80774e-006 5.37404e-007 130.636 -53.9355 113.141 -177.213 33.4261 -176.344 6.32772 8.48353 4.55039 -2.70658e-006 9.74937e-008 7.04589e-007 
-0.00444402 7.99058 70.5698 -0.00886773 -71.0095 179.991 0.0355483 -0.731003 0.0429563 0.0716536 -1.46201 0.0863767 0.0716535 -1.462 0.0863767 -3.98603e-006 -14.2326 -3.7515e-006 -0.0588641 -19.9747 -0.0212564 29.6011 16.4909 -29.7504 104.953 -2.65852 114.448 -71.4973 -76.8304 -30.3574 -14.3742 -24.6388 -14.94 -1.50647e-005 5.6677e-006 -2.27043e-006 1.50647e-005 -5.64599e-006 2.27043e-006 -1.29861e-005 2.15882e-006 -6.53524e-006 -1.50647e-005 5.6677e-006 -2.27043e-006 -0.0128165 0.00232012 8.59636e-005 -4.11237e-007 -1.29637e-006 -4.72217e-006 -1.50647e-005 5.6677e-006 -2.27043e-006 -0.0160416 0.00299371 0.0008562 3.18217e-006 -2.02133e-007 -9.64039e-007 -1.50647e-005 5.6677e-006 -2.27043e-006 -0.0126099 0.00312877 0.00283514 3.93797e-006 -4.48325e-006 -2.62251e-006 -1.50647e-005 5.6677e-006 -2.27043e-006 1.50647e-005 -5.64599e-006 2.27043e-006 -1.29861e-005 2.15882e-006 -6.53524e-006 -30.5195 16.4003 24.5177 -102.7 -7.5271 -115.815 70.7057 -76.7464 28.9812 14.0421 -24.9061 14.6603 1.74931e-014 3.18055e-015 -0 -7.40412e-007 1.99204e-006 1.40607e-006 6.36111e-015 0 -0 1.74931e-014 3.18055e-015 -0 0.0129423 0.00231859 -8.60229e-005 3.18055e-015 3.18055e-015 3.18055e-015 1.74931e-014 3.18055e-015 -0 0.0163284 0.00303418 -0.000870327 -7.06225e-031 6.36111e-015 6.36111e-015 1.74931e-014 3.18055e-015 -0 0.0145829 0.00368334 -0.00326656 5.78093e-006 -1.16359e-006 -6.1935e-007 1.74931e-014 3.18055e-015 -0 -7.40412e-007 1.99204e-006 1.40607e-006 6.36111e-015 0 -0 -121.202 -58.9041 -105.073 176.939 43.1047 177.723 -6.60015 8.57793 -3.51331 -3.10984e-006 -1.69795e-007 -1.31635e-006 118.952 -57.2053 103.335 -176.901 43.1008 -177.782 6.57599 8.65014 3.51425 -4.17572e-006 -1.5271e-006 3.83974e-006 
